<svg xmlns="http://www.w3.org/2000/svg" viewBox="0 0 120 120" width="100%" height="100%">
  <defs>
    <linearGradient id="athleteGrad" x1="0%" y1="0%" x2="100%" y2="100%">
      <stop offset="0%" stop-color="#f97316" />
      <stop offset="100%" stop-color="#ea580c" />
    </linearGradient>
    <filter id="shadow" x="-10%" y="-10%" width="120%" height="120%">
      <feDropShadow dx="0" dy="4" stdDeviation="4" flood-color="#ea580c" flood-opacity="0.25"/>
    </filter>
  </defs>
  <circle cx="60" cy="60" r="54" fill="url(#athleteGrad)" filter="url(#shadow)" />
  <g fill="#ffffff" transform="translate(25, 25) scale(0.58)">
    <!-- Sneaker/Running Icon -->
    <path d="M102 78 H75 C73.3 78 72 76.7 72 75 V66 C72 64.3 73.3 63 75 63 H96 V54 C96 35.8 81.2 21 63 21 C54.3 21 46.5 24.3 40.5 29.8 C38.6 28.6 36.3 28 34 28 C27.4 28 22 33.4 22 40 C22 42 22.5 43.8 23.4 45.4 C16.5 49.3 12 56.6 12 65 C12 77.1 21.9 87 34 87 H96 C99.3 87 102 84.3 102 81 V78 Z M34 78 C26.8 78 21 72.2 21 65 C21 57.8 26.8 52 34 52 C41.2 52 47 57.8 47 65 C47 72.2 41.2 78 34 78 Z" />
  </g>
</svg>
